<?xml version="1.0" encoding="UTF-8" standalone="no"?>
<!-- Created with Inkscape (http://www.inkscape.org/) -->

<svg
   width="103mm"
   height="103mm"
   viewBox="0 0 103 103"
   version="1.1"
   id="svg5"
   xml:space="preserve"
   inkscape:version="1.2.2 (b0a8486541, 2022-12-01)"
   sodipodi:docname="logo.svg"
   inkscape:export-filename="logo.png"
   inkscape:export-xdpi="147.96001"
   inkscape:export-ydpi="147.96001"
   xmlns:inkscape="http://www.inkscape.org/namespaces/inkscape"
   xmlns:sodipodi="http://sodipodi.sourceforge.net/DTD/sodipodi-0.dtd"
   xmlns="http://www.w3.org/2000/svg"
   xmlns:svg="http://www.w3.org/2000/svg"><sodipodi:namedview
     id="namedview7"
     pagecolor="#ffffff"
     bordercolor="#666666"
     borderopacity="1.0"
     inkscape:showpageshadow="2"
     inkscape:pageopacity="0.0"
     inkscape:pagecheckerboard="false"
     inkscape:deskcolor="#d1d1d1"
     inkscape:document-units="mm"
     showgrid="false"
     inkscape:zoom="1"
     inkscape:cx="384.5"
     inkscape:cy="398"
     inkscape:window-width="1557"
     inkscape:window-height="1378"
     inkscape:window-x="993"
     inkscape:window-y="28"
     inkscape:window-maximized="0"
     inkscape:current-layer="layer1" /><defs
     id="defs2"><inkscape:path-effect
       effect="simplify"
       id="path-effect520"
       is_visible="true"
       lpeversion="1"
       steps="5"
       threshold="0.002"
       smooth_angles="0"
       helper_size="0"
       simplify_individual_paths="false"
       simplify_just_coalesce="false" /><rect
       x="24.261479"
       y="172.18783"
       width="355.58316"
       height="151.47967"
       id="rect348" /><rect
       x="101.65699"
       y="422.83255"
       width="616.06396"
       height="257.60001"
       id="rect356" /></defs><g
     inkscape:label="Layer 1"
     inkscape:groupmode="layer"
     id="layer1"
     transform="translate(-55.74017,-87.470665)"><g
       id="g1363"
       transform="translate(0,0.45454)"><path
         id="path482"
         style="font-weight:900;font-size:40px;line-height:1.25;font-family:Inter;-inkscape-font-specification:'Inter Heavy';white-space:pre;fill:#95aac0;fill-opacity:1;stroke-width:0.593543"
         d="m 115.13138,116.45339 v 26.62267 6.21305 11.05359 h 4.65398 v -3.67574 l 0.6997,-0.88522 2.63911,4.56096 h 5.32836 l -4.53564,-7.27552 4.40076,-5.67407 h -5.22707 l -3.13624,4.35012 h -0.16898 v -2.45412 -6.21305 -26.62267 z m 23.7417,25.34109 c -1.26465,0 -2.29288,0.95303 -2.29288,2.12494 0,1.1719 1.02823,2.12441 2.29288,2.12441 1.26465,0 2.2934,-0.95251 2.2934,-2.12441 0,-1.17191 -1.02875,-2.12494 -2.2934,-2.12494 z m -72.202828,1.04593 c -4.653911,0 -8.43101,3.20346 -8.43101,8.90282 0,5.46329 3.422863,8.83563 8.4646,8.83563 4.519015,0 7.756632,-2.76501 7.756632,-7.48636 v -2.39469 h -7.655346 v 3.33882 h 3.136242 c -0.04215,1.50072 -1.10462,2.46186 -3.203938,2.46186 -2.428128,0 -3.675745,-1.78728 -3.675745,-4.82244 0,-2.99301 1.349172,-4.75527 3.709851,-4.75527 1.466994,0 2.461499,0.67433 2.748153,1.85467 h 4.738212 c -0.362534,-3.46515 -3.507047,-5.93504 -7.587651,-5.93504 z m 62.861278,0.23565 v 17.26664 h 4.65398 v -17.26664 z m -45.223595,4.14806 c -1.382683,0 -2.462051,0.80975 -2.934188,2.63085 h -0.134875 v -2.46186 h -4.519104 v 12.94959 h 4.653979 v -6.74481 c 0,-1.48385 1.020433,-2.46186 2.394686,-2.46186 0.480567,0 1.256087,0.076 1.719792,0.23616 v -3.97082 c -0.370964,-0.10961 -0.775602,-0.17725 -1.18029,-0.17725 z m 8.059973,0 c -4.013156,0 -6.576342,2.66447 -6.576342,6.67763 0,4.19021 2.529576,6.67711 6.677628,6.67711 3.591606,0 5.901769,-1.71989 6.340182,-4.41781 h -4.249353 c -0.269792,0.7335 -1.03684,1.1467 -1.989543,1.1467 -1.382684,0 -2.192114,-0.91074 -2.192114,-2.15853 v -0.20205 h 8.43101 v -1.07901 c 0,-4.12275 -2.529484,-6.64404 -6.441468,-6.64404 z m 14.433742,0 c -4.01316,0 -6.57582,2.66447 -6.57582,6.67763 0,4.19021 2.52906,6.67711 6.67711,6.67711 3.59161,0 5.90177,-1.71989 6.34018,-4.41781 h -4.24935 c -0.2698,0.7335 -1.03684,1.1467 -1.98955,1.1467 -1.38267,0 -2.19211,-0.91074 -2.19211,-2.15853 v -0.20205 h 8.43101 v -1.07901 c 0,-4.12275 -2.52949,-6.64404 -6.44147,-6.64404 z m 29.74496,0.16899 v 12.94959 h 4.65346 v -12.94959 z m 6.37377,0 3.43958,6.47505 -3.67574,6.47454 h 4.65398 l 2.12441,-4.11396 2.19212,4.11396 h 4.58628 l -3.64215,-6.47454 3.47369,-6.47505 h -4.62039 l -1.98955,4.01319 -1.88825,-4.01319 z m -50.451186,3.10265 c 1.155047,0 2.031946,0.77537 2.057239,1.88826 h -4.148067 c 0.02529,-1.12132 0.952643,-1.88826 2.090828,-1.88826 z m 14.433746,0 c 1.15505,0 2.03195,0.77537 2.05724,1.88826 h -4.14807 c 0.0253,-1.12132 0.95265,-1.88826 2.09083,-1.88826 z" /><g
         id="g6110"
         transform="matrix(0.21880207,0,0,0.21880207,120.1659,55.723794)"><rect
           fill="#0d5eaf"
           width="158.75"
           height="105.83334"
           id="rect5587"
           x="6.1242619"
           y="277.55576"
           style="stroke-width:5.87963" /><path
           fill="none"
           stroke-width="11.7593"
           stroke="#ffffff"
           d="m 35.522415,277.55575 v 64.67592 M 6.1242654,306.9539 H 64.920565 m 0,-11.75926 H 164.87427 M 64.920565,318.71315 H 164.87427 M 6.1242654,342.23167 H 164.87427 M 6.1242654,365.75019 H 164.87427"
           id="path5589" /></g></g></g></svg>
